<svg width="86" height="70" viewBox="0 0 86 70" fill="none" xmlns="http://www.w3.org/2000/svg">
<path d="M67.8947 55.2632C70.2956 55.2632 72.5982 56.0395 74.2959 57.4213C75.9936 58.8032 76.9474 60.6773 76.9474 62.6316C76.9474 64.5858 75.9936 66.46 74.2959 67.8418C72.5982 69.2237 70.2956 70 67.8947 70C65.4938 70 63.1913 69.2237 61.4936 67.8418C59.7959 66.46 58.8421 64.5858 58.8421 62.6316C58.8421 60.6773 59.7959 58.8032 61.4936 57.4213C63.1913 56.0395 65.4938 55.2632 67.8947 55.2632ZM67.8947 58.9474C66.6943 58.9474 65.543 59.3355 64.6941 60.0264C63.8453 60.7174 63.3684 61.6545 63.3684 62.6316C63.3684 63.6087 63.8453 64.5458 64.6941 65.2367C65.543 65.9276 66.6943 66.3158 67.8947 66.3158C69.0952 66.3158 70.2465 65.9276 71.0953 65.2367C71.9442 64.5458 72.4211 63.6087 72.4211 62.6316C72.4211 61.6545 71.9442 60.7174 71.0953 60.0264C70.2465 59.3355 69.0952 58.9474 67.8947 58.9474ZM27.1579 55.2632C29.5588 55.2632 31.8614 56.0395 33.5591 57.4213C35.2568 58.8032 36.2105 60.6773 36.2105 62.6316C36.2105 64.5858 35.2568 66.46 33.5591 67.8418C31.8614 69.2237 29.5588 70 27.1579 70C24.757 70 22.4544 69.2237 20.7567 67.8418C19.059 66.46 18.1053 64.5858 18.1053 62.6316C18.1053 60.6773 19.059 58.8032 20.7567 57.4213C22.4544 56.0395 24.757 55.2632 27.1579 55.2632ZM27.1579 58.9474C25.9574 58.9474 24.8062 59.3355 23.9573 60.0264C23.1085 60.7174 22.6316 61.6545 22.6316 62.6316C22.6316 63.6087 23.1085 64.5458 23.9573 65.2367C24.8062 65.9276 25.9574 66.3158 27.1579 66.3158C28.3583 66.3158 29.5096 65.9276 30.3585 65.2367C31.2073 64.5458 31.6842 63.6087 31.6842 62.6316C31.6842 61.6545 31.2073 60.7174 30.3585 60.0264C29.5096 59.3355 28.3583 58.9474 27.1579 58.9474ZM76.9474 11.0526H14.8011L26.3432 33.1579H63.3684C64.8621 33.1579 66.1747 32.5684 66.9895 31.6842L80.5684 16.9474C81.1568 16.3211 81.4737 15.5474 81.4737 14.7368C81.4737 13.7597 80.9968 12.8226 80.148 12.1317C79.2991 11.4408 78.1478 11.0526 76.9474 11.0526ZM63.3684 36.8421H26.5695L23.0842 42.5895L22.6316 44.2105C22.6316 45.1876 23.1085 46.1247 23.9573 46.8157C24.8062 47.5066 25.9574 47.8947 27.1579 47.8947H76.9474V51.5789H27.1579C24.757 51.5789 22.4544 50.8026 20.7567 49.4208C19.059 48.0389 18.1053 46.1648 18.1053 44.2105C18.1039 42.9605 18.4933 41.7307 19.2368 40.6368L22.4958 35.2211L6.06526 3.68421H0V0H9.05263L12.9 7.36842H76.9474C79.3483 7.36842 81.6508 8.14473 83.3485 9.52658C85.0462 10.9084 86 12.7826 86 14.7368C86 16.5789 85.2305 18.1263 83.9632 19.3789L70.7916 33.7105C69.1621 35.5895 66.4463 36.8421 63.3684 36.8421Z" fill="black"/>
</svg>
