<svg width="20" height="23" viewBox="0 0 20 23" fill="none" xmlns="http://www.w3.org/2000/svg">
<path d="M14.8219 8.28167C16.2811 9.34006 18.0687 9.96281 19.9994 9.96281V6.19319C19.634 6.19333 19.2696 6.15463 18.9121 6.07771V9.04495C16.9815 9.04495 15.1941 8.42228 13.7346 7.36397V15.0568C13.7346 18.9051 10.6599 22.0246 6.8674 22.0246C5.45232 22.0246 4.13701 21.5905 3.04443 20.846C4.29146 22.1398 6.03053 22.9423 7.95443 22.9423C11.7472 22.9423 14.822 19.8229 14.822 15.9744V8.28167H14.8219ZM16.1633 4.47858C15.4175 3.65193 14.9278 2.58362 14.8219 1.40253V0.917702H13.7915C14.0508 2.41881 14.9356 3.70126 16.1633 4.47858ZM5.44318 17.893C5.02649 17.3387 4.80127 16.6606 4.80232 15.9633C4.80232 14.2033 6.20865 12.7762 7.94373 12.7762C8.26703 12.776 8.58843 12.8264 8.89662 12.9255V9.0716C8.53646 9.02155 8.17303 9.00022 7.80975 9.00807V12.0077C7.5014 11.9086 7.17984 11.8582 6.85639 11.8585C5.12139 11.8585 3.71514 13.2854 3.71514 15.0457C3.71514 16.2904 4.41803 17.368 5.44318 17.893Z" fill="#FF004F"/>
<path d="M13.7345 7.36389C15.1941 8.4222 16.9814 9.04487 18.912 9.04487V6.07763C17.8343 5.8447 16.8804 5.27335 16.1631 4.47858C14.9354 3.70118 14.0508 2.41873 13.7914 0.917702H11.0849V15.9742C11.0787 17.7295 9.67481 19.1508 7.94349 19.1508C6.92333 19.1508 6.01692 18.6574 5.44294 17.8929C4.41794 17.368 3.71497 16.2903 3.71497 15.0458C3.71497 13.2857 5.12122 11.8586 6.85622 11.8586C7.18864 11.8586 7.50903 11.9111 7.80958 12.0078V9.00815C4.08364 9.08627 1.08716 12.1752 1.08716 15.9743C1.08716 17.8708 1.83333 19.59 3.04442 20.8462C4.137 21.5905 5.45224 22.0247 6.86739 22.0247C10.66 22.0247 13.7346 18.905 13.7346 15.0568L13.7345 7.36389Z" fill="black"/>
<path d="M18.9121 6.07755V5.27541C17.9403 5.27684 16.9877 5.00071 16.1632 4.47858C16.893 5.2893 17.8541 5.84837 18.9121 6.07771M13.7914 0.917621C13.7667 0.774194 13.7477 0.62981 13.7345 0.484824V0H9.9975V15.0567C9.99156 16.8118 8.58766 18.2331 6.85625 18.2331C6.36541 18.2338 5.88128 18.1173 5.44297 17.893C6.01695 18.6574 6.92336 19.1507 7.94352 19.1507C9.67477 19.1507 11.0788 17.7296 11.0849 15.9743V0.9177L13.7914 0.917621ZM7.80984 9.00807V8.15398C7.49757 8.1107 7.18275 8.08902 6.86758 8.0891C3.07461 8.0891 0 11.2087 0 15.0567C0 17.4692 1.20836 19.5954 3.04461 20.846C1.83352 19.5899 1.08734 17.8706 1.08734 15.9742C1.08734 12.1752 4.08375 9.08619 7.80984 9.00807Z" fill="#00F2EA"/>
</svg>
